<svg width="100" height="125" xmlns="http://www.w3.org/2000/svg">

 <g>
  <title>background</title>
  <rect fill="none" id="canvas_background" height="402" width="582" y="-1" x="-1"/>
 </g>
 <g>
  <title>Layer 1</title>
  <path id="svg_1" d="m90.1,79.4c-0.1,-0.2 -0.4,-0.4 -0.7,-0.3l-14.9,2.6l-6.3,-2.9l-1,-18.5c0,0 0,0 0,0c0,-0.1 0,-0.2 -0.1,-0.3c0,0 0,0 0,0c0,0 0,0 0,0l-9,-12.7l-6.5,-8.1l-1,-4.9l-0.9,-4.4l7.5,-1.6c0.3,-0.1 0.5,-0.3 0.5,-0.5c0,-0.3 -0.1,-0.5 -0.3,-0.7l-9.5,-5.2l-3.9,-4.9c-0.2,-0.2 -0.5,-0.3 -0.7,-0.2l-0.8,0.2l-5.5,-11.3c-0.1,-0.2 -0.3,-0.3 -0.5,-0.4c-0.2,0 -0.5,0.1 -0.6,0.3l-3.1,4.2c-0.1,0.1 -0.1,0.3 -0.1,0.5l0.6,4.9l-2.2,-2c-0.3,-0.2 -0.6,-0.2 -0.9,0l-1.6,1.5c-0.2,0.2 -0.2,0.4 -0.2,0.6l1.2,6.2c0,0 0,0 0,0.1l-0.6,0.2c0,0 0,0 0,0c0,0 -0.1,0 -0.1,0.1c0,0 -0.1,0 -0.1,0.1c0,0 -0.1,0.1 -0.1,0.1c0,0 0,0.1 -0.1,0.1c0,0 0,0.1 0,0.1c0,0 0,0.1 0,0.1c0,0 0,0 0,0l0.6,7.3l-3.5,12.8c0,0 0,0 0,0c0,0 0,0 0,0c0,0.1 0,0.1 0,0.2c0,0 0,0 0,0.1l0,0c0,0 0,0 0,0l3.6,17.1l-1.2,24.9l-4.1,2.5c-0.1,0 -0.1,0.1 -0.2,0.2l-1.3,1.7c-0.1,0.2 -0.2,0.5 -0.1,0.7c0.1,0.2 0.3,0.4 0.6,0.4l10.4,0c0.1,0 0.2,0 0.2,0c0,0 0,0 0.1,0c0.1,0 0.1,-0.1 0.1,-0.1c0,0 0,0 0,0c0,0 0,0 0,0c0,0 0.1,-0.1 0.1,-0.1c0,0 0,-0.1 0,-0.1c0,0 0,0 0,0l4.6,-19.6l1.5,1.3l-1.9,7.9c0,0 0,0 0,0c0,0.1 0,0.1 0,0.2c0,0 0,0 0,0c0,0.1 0.1,0.2 0.1,0.2c0,0 0,0 0,0c0,0 0,0 0,0l3.6,5l-4.1,1.8c-0.1,0 -0.2,0.1 -0.3,0.2l-1.6,2.3c-0.1,0.2 -0.2,0.5 0,0.7c0.1,0.2 0.3,0.4 0.6,0.4l17.7,0c0.1,0 0.3,-0.1 0.4,-0.1c0,0 0,0 0,0l1.9,-1.5l8.8,1.6c0,0 0.1,0 0.1,0c0,0 0,0 0,0c0,0 0,0 0,0c0,0 0,0 0,0s0,0 0,0c0,0 0,0 0.1,0l16.7,-1.3c0,0 0,0 0,0c0,0 0.1,0 0.1,0c0,0 0.1,0 0.1,0c0,0 0.1,-0.1 0.1,-0.1c0,0 0.1,0 0.1,-0.1l7.4,-8.5c0.3,-0.4 0.3,-0.7 0.2,-1zm-15.7,3.8l5.9,4.5l-12.9,1l7,-5.5zm-25,-54.6l-1.1,-5l6.8,3.7l-5.7,1.3zm-2.6,-6l3.4,15.7l-19.7,-9l-0.6,-6.5l13.4,-4.7l3.5,4.5zm-17.2,-7.2l0.9,-0.9l3,2.8c0.2,0.2 0.5,0.2 0.7,0.1c0.2,-0.1 0.4,-0.4 0.4,-0.7l-0.6,-6.3l2.3,-3.1l5,10.2l-10.5,3.7l-1.2,-5.8zm0.6,15.3l20.4,9.3l5.4,6.8l-28.9,-4.6l3.1,-11.5zm-3.1,12.7l10.8,1.7l-7.7,12.9l-3.1,-14.6zm5.9,44.9l-3.6,-3.4l0.3,-6.9l7.4,-7.1l-4.1,17.4zm-3.2,-12.1l0.7,-14.7l6.8,7.4l-7.5,7.3zm-5,12.1l3.8,-2.3l3.1,2.9l-7.4,0l0.5,-0.6zm13.9,-19.8l-7.9,-8.7l8.6,-14.4l17.2,2.8l-15.9,22.1l-2,-1.8zm2.7,3l16.2,-22.7l8,11.4l-25.7,17.8l1.5,-6.5zm-1.6,8.2l26.2,-18.2l0.9,17.3l-19.8,10l-3.7,-4l-3.6,-5.1zm14.1,9.2l-4.2,0l12.1,-6.1l-7.9,6.1zm-15.4,-1.1l4.2,-1.8l2.7,2.9l-7.7,0l0.8,-1.1zm29.1,-7.8l5.5,2.6l-8,6.4l-7.4,-1.3l9.9,-7.7zm14.4,7.4l-6,-4.6l11.8,-2l-5.8,6.6z"/>
 </g>
</svg>